<svg width="14" height="13" viewBox="0 0 14 13" fill="none" xmlns="http://www.w3.org/2000/svg">
<path d="M13.534 5.71354C12.9847 4.55635 12.3311 3.6126 11.573 2.88229L10.778 3.67729C11.4263 4.29682 11.991 5.10729 12.4793 6.11666C11.1793 8.80729 9.33398 10.0854 6.8121 10.0854C6.05512 10.0854 5.35788 9.96885 4.72038 9.73572L3.85898 10.5971C4.74439 11.006 5.72877 11.2104 6.8121 11.2104C9.81523 11.2104 12.0559 9.64635 13.534 6.51822C13.5934 6.39242 13.6242 6.25501 13.6242 6.11588C13.6242 5.97675 13.5934 5.83934 13.534 5.71354ZM12.5407 0.703536L11.8746 0.0366608C11.863 0.0250387 11.8492 0.0158189 11.834 0.0095284C11.8189 0.00323786 11.8026 0 11.7862 0C11.7697 0 11.7535 0.00323786 11.7383 0.0095284C11.7231 0.0158189 11.7093 0.0250387 11.6977 0.0366608L9.98882 1.74479C9.04663 1.26354 7.98773 1.02291 6.8121 1.02291C3.80898 1.02291 1.56835 2.58697 0.090227 5.7151C0.0308135 5.84091 0 5.97831 0 6.11744C0 6.25657 0.0308135 6.39398 0.090227 6.51979C0.680748 7.76354 1.39169 8.76046 2.22304 9.51057L0.569602 11.1635C0.546178 11.187 0.533019 11.2188 0.533019 11.2519C0.533019 11.285 0.546178 11.3168 0.569602 11.3403L1.23663 12.0073C1.26007 12.0307 1.29185 12.0439 1.32499 12.0439C1.35813 12.0439 1.38991 12.0307 1.41335 12.0073L12.5407 0.880411C12.5523 0.868802 12.5615 0.855016 12.5678 0.839841C12.5741 0.824666 12.5774 0.8084 12.5774 0.791973C12.5774 0.775546 12.5741 0.759281 12.5678 0.744106C12.5615 0.728931 12.5523 0.715145 12.5407 0.703536ZM1.14491 6.11666C2.44648 3.42604 4.29179 2.14791 6.8121 2.14791C7.66429 2.14791 8.43913 2.29416 9.1421 2.5915L8.04366 3.68994C7.52346 3.41238 6.92782 3.30937 6.34461 3.39611C5.7614 3.48284 5.22151 3.75472 4.80459 4.17165C4.38766 4.58857 4.11578 5.12846 4.02905 5.71167C3.94232 6.29488 4.04533 6.89052 4.32288 7.41072L3.01945 8.71416C2.29804 8.07744 1.67616 7.21479 1.14491 6.11666ZM4.9996 6.11666C4.99988 5.84114 5.06514 5.56956 5.19009 5.324C5.31504 5.07844 5.49615 4.86581 5.71871 4.70339C5.94128 4.54098 6.19901 4.43335 6.47099 4.38926C6.74296 4.34517 7.0215 4.36585 7.28398 4.44963L5.08257 6.65104C5.02739 6.47829 4.9994 6.29801 4.9996 6.11666Z" fill="#6D717F" style="fill:#6D717F;fill:color(display-p3 0.4275 0.4431 0.4980);fill-opacity:1;"/>
</svg>
