<svg width="16" height="16" viewBox="0 0 16 16" fill="none" xmlns="http://www.w3.org/2000/svg">
<path d="M14.7215 7.59733C14.1722 6.44014 13.5186 5.49639 12.7605 4.76607L11.9655 5.56107C12.6138 6.18061 13.1785 6.99108 13.6668 8.00045C12.3668 10.6911 10.5215 11.9692 7.9996 11.9692C7.24262 11.9692 6.54538 11.8526 5.90788 11.6195L5.04648 12.4809C5.93189 12.8898 6.91627 13.0942 7.9996 13.0942C11.0027 13.0942 13.2434 11.5301 14.7215 8.40201C14.7809 8.27621 14.8117 8.1388 14.8117 7.99967C14.8117 7.86054 14.7809 7.72313 14.7215 7.59733ZM13.7282 2.58732L13.0621 1.92045C13.0505 1.90883 13.0367 1.89961 13.0215 1.89332C13.0064 1.88703 12.9901 1.88379 12.9737 1.88379C12.9572 1.88379 12.941 1.88703 12.9258 1.89332C12.9106 1.89961 12.8968 1.90883 12.8852 1.92045L11.1763 3.62857C10.2341 3.14732 9.17523 2.9067 7.9996 2.9067C4.99648 2.9067 2.75585 4.47076 1.27773 7.59889C1.21831 7.7247 1.1875 7.8621 1.1875 8.00123C1.1875 8.14036 1.21831 8.27777 1.27773 8.40357C1.86825 9.64733 2.57919 10.6443 3.41054 11.3944L1.7571 13.0473C1.73368 13.0708 1.72052 13.1025 1.72052 13.1357C1.72052 13.1688 1.73368 13.2006 1.7571 13.224L2.42413 13.8911C2.44757 13.9145 2.47935 13.9277 2.51249 13.9277C2.54563 13.9277 2.57741 13.9145 2.60085 13.8911L13.7282 2.7642C13.7398 2.75259 13.749 2.7388 13.7553 2.72363C13.7616 2.70846 13.7649 2.69219 13.7649 2.67576C13.7649 2.65934 13.7616 2.64307 13.7553 2.62789C13.749 2.61272 13.7398 2.59893 13.7282 2.58732ZM2.33241 8.00045C3.63398 5.30983 5.47929 4.0317 7.9996 4.0317C8.85179 4.0317 9.62663 4.17795 10.3296 4.47529L9.23116 5.57373C8.71096 5.29617 8.11532 5.19316 7.53211 5.2799C6.9489 5.36663 6.40901 5.63851 5.99209 6.05544C5.57516 6.47236 5.30328 7.01225 5.21655 7.59546C5.12982 8.17866 5.23283 8.77431 5.51038 9.29451L4.20695 10.5979C3.48554 9.96123 2.86366 9.09858 2.33241 8.00045ZM6.1871 8.00045C6.18738 7.72493 6.25264 7.45335 6.37759 7.20779C6.50254 6.96223 6.68365 6.7496 6.90621 6.58718C7.12878 6.42477 7.38651 6.31714 7.65849 6.27305C7.93046 6.22895 8.209 6.24964 8.47148 6.33342L6.27007 8.53483C6.21489 8.36208 6.1869 8.1818 6.1871 8.00045Z" fill="#6D717F" style="fill:#6D717F;fill:color(display-p3 0.4275 0.4431 0.4980);fill-opacity:1;"/>
<path d="M7.93762 9.75012C7.88355 9.75012 7.83027 9.74762 7.77746 9.74277L6.95215 10.5681C7.44854 10.7582 7.98937 10.8004 8.50926 10.6897C9.02915 10.579 9.50583 10.3201 9.8817 9.9442C10.2576 9.56833 10.5165 9.09165 10.6272 8.57176C10.7379 8.05187 10.6957 7.51104 10.5056 7.01465L9.68027 7.83996C9.68512 7.89277 9.68762 7.94605 9.68762 8.00012C9.68774 8.22997 9.64256 8.45758 9.55466 8.66996C9.46676 8.88233 9.33786 9.0753 9.17533 9.23783C9.0128 9.40036 8.81983 9.52926 8.60746 9.61716C8.39508 9.70506 8.16747 9.75024 7.93762 9.75012Z" fill="#6D717F" style="fill:#6D717F;fill:color(display-p3 0.4275 0.4431 0.4980);fill-opacity:1;"/>
</svg>
