<svg width="32" height="32" viewBox="0 0 32 32" fill="none" xmlns="http://www.w3.org/2000/svg">
<path d="M4.48283 16.0144L1.47949 13.8682" stroke="#0C122A" style="stroke:#0C122A;stroke:color(display-p3 0.0471 0.0706 0.1647);stroke-opacity:1;" stroke-width="0.5" stroke-linecap="round" stroke-linejoin="round"/>
<path d="M9.41212 19.542L5.66504 16.8574" stroke="#0C122A" style="stroke:#0C122A;stroke:color(display-p3 0.0471 0.0706 0.1647);stroke-opacity:1;" stroke-width="0.5" stroke-linecap="round" stroke-linejoin="round"/>
<path d="M1.62598 11.3065L13.0425 9.54102" stroke="#0C122A" style="stroke:#0C122A;stroke:color(display-p3 0.0471 0.0706 0.1647);stroke-opacity:1;" stroke-width="0.5" stroke-linecap="round" stroke-linejoin="round"/>
<path d="M15.3444 19.972H13.9404V18.7803H14.5298V17.7578" stroke="#0C122A" style="stroke:#0C122A;stroke:color(display-p3 0.0471 0.0706 0.1647);stroke-opacity:1;" stroke-width="0.5" stroke-linecap="round" stroke-linejoin="round"/>
<path d="M16 20.4873C16.3737 20.4873 16.6767 20.1843 16.6767 19.8105C16.6767 19.4368 16.3737 19.1338 16 19.1338C15.6262 19.1338 15.3232 19.4368 15.3232 19.8105C15.3232 20.1843 15.6262 20.4873 16 20.4873Z" stroke="#0C122A" style="stroke:#0C122A;stroke:color(display-p3 0.0471 0.0706 0.1647);stroke-opacity:1;" stroke-width="0.5" stroke-linecap="round" stroke-linejoin="round"/>
<path d="M14.073 12.4248L13.2344 12.9986V14.5902" stroke="#0C122A" style="stroke:#0C122A;stroke:color(display-p3 0.0471 0.0706 0.1647);stroke-opacity:1;" stroke-width="0.5" stroke-linecap="round" stroke-linejoin="round"/>
<path d="M6.06934 16.8569L13.1017 14.9258L7.90838 13.1015L8.40861 12.6602L13.2341 13.9254" stroke="#0C122A" style="stroke:#0C122A;stroke:color(display-p3 0.0471 0.0706 0.1647);stroke-opacity:1;" stroke-width="0.5" stroke-linecap="round" stroke-linejoin="round"/>
<path d="M13.2341 16.1768C13.1164 16.2209 6.06934 18.4277 6.06934 18.4277" stroke="#0C122A" style="stroke:#0C122A;stroke:color(display-p3 0.0471 0.0706 0.1647);stroke-opacity:1;" stroke-width="0.5" stroke-linecap="round" stroke-linejoin="round"/>
<path d="M4.00977 18.4277L5.43685 22.4589" stroke="#0C122A" style="stroke:#0C122A;stroke:color(display-p3 0.0471 0.0706 0.1647);stroke-opacity:1;" stroke-width="0.5" stroke-linecap="round" stroke-linejoin="round"/>
<path d="M6.06899 16.4537C6.06899 16.6167 5.91316 16.7653 5.66524 16.8574C5.49524 16.9212 5.27566 16.9637 5.04198 16.9637C4.46816 16.9637 4.00781 16.737 4.00781 16.4537C4.00781 16.2695 4.19906 16.1065 4.4824 16.0144C4.64531 15.9649 4.83656 15.9365 5.04198 15.9365C5.60865 15.9365 6.06899 16.1633 6.06899 16.4537Z" stroke="#0C122A" style="stroke:#0C122A;stroke:color(display-p3 0.0471 0.0706 0.1647);stroke-opacity:1;" stroke-width="0.5" stroke-linecap="round" stroke-linejoin="round"/>
<path d="M4.00977 16.4502V18.4272C4.00977 18.8648 4.47082 18.9421 5.03961 18.9421C5.6084 18.9421 6.06946 18.7115 6.06946 18.4272V16.4502" stroke="#0C122A" style="stroke:#0C122A;stroke:color(display-p3 0.0471 0.0706 0.1647);stroke-opacity:1;" stroke-width="0.5" stroke-linecap="round" stroke-linejoin="round"/>
<path d="M8.11403 10.7475C8.11403 10.5687 7.82418 10.4238 7.46668 10.4238C7.10919 10.4238 6.81934 10.5688 6.81934 10.7475" stroke="#0C122A" style="stroke:#0C122A;stroke:color(display-p3 0.0471 0.0706 0.1647);stroke-opacity:1;" stroke-width="0.5" stroke-linecap="round" stroke-linejoin="round"/>
<path d="M6.81934 10.748V12.926C6.81934 13.1047 7.10919 13.2496 7.46668 13.2496C7.82418 13.2496 8.11403 13.1047 8.11403 12.926V10.748" stroke="#0C122A" style="stroke:#0C122A;stroke:color(display-p3 0.0471 0.0706 0.1647);stroke-opacity:1;" stroke-width="0.5" stroke-linecap="round" stroke-linejoin="round"/>
<path d="M7.11426 14.2788L6.94434 13.1152" stroke="#0C122A" style="stroke:#0C122A;stroke:color(display-p3 0.0471 0.0706 0.1647);stroke-opacity:1;" stroke-width="0.5" stroke-linecap="round" stroke-linejoin="round"/>
<path d="M27.5176 16.0144L30.5209 13.8682" stroke="#0C122A" style="stroke:#0C122A;stroke:color(display-p3 0.0471 0.0706 0.1647);stroke-opacity:1;" stroke-width="0.5" stroke-linecap="round" stroke-linejoin="round"/>
<path d="M22.5879 19.542L26.335 16.8574" stroke="#0C122A" style="stroke:#0C122A;stroke:color(display-p3 0.0471 0.0706 0.1647);stroke-opacity:1;" stroke-width="0.5" stroke-linecap="round" stroke-linejoin="round"/>
<path d="M30.3736 11.3065L18.957 9.54102" stroke="#0C122A" style="stroke:#0C122A;stroke:color(display-p3 0.0471 0.0706 0.1647);stroke-opacity:1;" stroke-width="0.5" stroke-linecap="round" stroke-linejoin="round"/>
<path d="M16.6553 19.972H18.0593V18.7803H17.4699V17.7578" stroke="#0C122A" style="stroke:#0C122A;stroke:color(display-p3 0.0471 0.0706 0.1647);stroke-opacity:1;" stroke-width="0.5" stroke-linecap="round" stroke-linejoin="round"/>
<path d="M17.9277 12.4248L18.7663 12.9986V14.5902" stroke="#0C122A" style="stroke:#0C122A;stroke:color(display-p3 0.0471 0.0706 0.1647);stroke-opacity:1;" stroke-width="0.5" stroke-linecap="round" stroke-linejoin="round"/>
<path d="M25.9304 16.8569L18.898 14.9258L24.0914 13.1015L23.5911 12.6602L18.7656 13.9254" stroke="#0C122A" style="stroke:#0C122A;stroke:color(display-p3 0.0471 0.0706 0.1647);stroke-opacity:1;" stroke-width="0.5" stroke-linecap="round" stroke-linejoin="round"/>
<path d="M18.7656 16.1768C18.8833 16.2209 25.9304 18.4277 25.9304 18.4277" stroke="#0C122A" style="stroke:#0C122A;stroke:color(display-p3 0.0471 0.0706 0.1647);stroke-opacity:1;" stroke-width="0.5" stroke-linecap="round" stroke-linejoin="round"/>
<path d="M27.9906 18.4277L26.5635 22.4589" stroke="#0C122A" style="stroke:#0C122A;stroke:color(display-p3 0.0471 0.0706 0.1647);stroke-opacity:1;" stroke-width="0.5" stroke-linecap="round" stroke-linejoin="round"/>
<path d="M25.9307 16.4537C25.9307 16.6167 26.0866 16.7653 26.3345 16.8574C26.5045 16.9212 26.7241 16.9637 26.9577 16.9637C27.5316 16.9637 27.9919 16.737 27.9919 16.4537C27.9919 16.2695 27.8007 16.1065 27.5173 16.0144C27.3544 15.9649 27.1632 15.9365 26.9577 15.9365C26.3911 15.9365 25.9307 16.1633 25.9307 16.4537Z" stroke="#0C122A" style="stroke:#0C122A;stroke:color(display-p3 0.0471 0.0706 0.1647);stroke-opacity:1;" stroke-width="0.5" stroke-linecap="round" stroke-linejoin="round"/>
<path d="M27.9904 16.4502V18.4272C27.9904 18.8648 27.5293 18.9421 26.9605 18.9421C26.3917 18.9421 25.9307 18.7115 25.9307 18.4272V16.4502" stroke="#0C122A" style="stroke:#0C122A;stroke:color(display-p3 0.0471 0.0706 0.1647);stroke-opacity:1;" stroke-width="0.5" stroke-linecap="round" stroke-linejoin="round"/>
<path d="M23.8857 10.7475C23.8857 10.5687 24.1756 10.4238 24.5331 10.4238C24.8906 10.4238 25.1804 10.5688 25.1804 10.7475" stroke="#0C122A" style="stroke:#0C122A;stroke:color(display-p3 0.0471 0.0706 0.1647);stroke-opacity:1;" stroke-width="0.5" stroke-linecap="round" stroke-linejoin="round"/>
<path d="M25.1804 10.748V12.926C25.1804 13.1047 24.8906 13.2496 24.5331 13.2496C24.1756 13.2496 23.8857 13.1047 23.8857 12.926V10.748" stroke="#0C122A" style="stroke:#0C122A;stroke:color(display-p3 0.0471 0.0706 0.1647);stroke-opacity:1;" stroke-width="0.5" stroke-linecap="round" stroke-linejoin="round"/>
<path d="M24.8857 14.2788L25.0557 13.1152" stroke="#0C122A" style="stroke:#0C122A;stroke:color(display-p3 0.0471 0.0706 0.1647);stroke-opacity:1;" stroke-width="0.5" stroke-linecap="round" stroke-linejoin="round"/>
<path d="M17.5447 16.5292L18.8981 15.5583V14.6903L17.9272 13.9547V11.9832L17.3387 11.1152H14.661L14.0725 11.9832V13.9547L13.1016 14.6903V15.5583L14.455 16.5292H17.5447Z" stroke="#0C122A" style="stroke:#0C122A;stroke:color(display-p3 0.0471 0.0706 0.1647);stroke-opacity:1;" stroke-width="0.5" stroke-linecap="round" stroke-linejoin="round"/>
<path d="M18.7662 15.6533V17.0443L18.0526 17.7578H13.948L13.2344 17.0443V15.6533" stroke="#0C122A" style="stroke:#0C122A;stroke:color(display-p3 0.0471 0.0706 0.1647);stroke-opacity:1;" stroke-width="0.5" stroke-linecap="round" stroke-linejoin="round"/>
<path d="M17.9269 13.5078H14.0723" stroke="#0C122A" style="stroke:#0C122A;stroke:color(display-p3 0.0471 0.0706 0.1647);stroke-opacity:1;" stroke-width="0.5" stroke-linecap="round" stroke-linejoin="round"/>
</svg>
