<svg width="108" height="22" viewBox="0 0 108 22" fill="none" xmlns="http://www.w3.org/2000/svg">
<g clip-path="url(#clip0_317_859)">
<path d="M6.58155 1.71973C8.87553 1.71973 10.8799 2.2468 12.5952 3.30078C14.3312 4.33411 15.6133 5.66714 16.44 7.2998C17.2664 8.91166 17.6792 10.6682 17.6792 12.5693C17.6792 13.9746 17.431 15.328 16.9351 16.6299C16.5031 17.7458 15.914 18.7597 15.1685 19.6719C14.0705 19.7387 12.9818 19.8072 11.9029 19.8789C13.0823 19.0657 13.9646 18.0766 14.5484 16.9092C15.2097 15.5659 15.5405 14.1193 15.5405 12.5693C15.5405 10.1307 14.7346 8.03303 13.1226 6.27637C11.5106 4.49903 9.27827 3.61035 6.42627 3.61035H2.1792V20.6133C1.47142 20.6734 0.768899 20.7346 0.0717773 20.7969V1.71973H6.58155ZM99.8726 1.25391C101.98 1.25391 103.655 1.84348 104.895 3.02148C106.155 4.17879 106.785 5.76013 106.785 7.76465H104.677C104.677 6.27665 104.243 5.12924 103.375 4.32324C102.528 3.49673 101.34 3.08308 99.8111 3.08301C98.4264 3.08301 97.3098 3.43503 96.4624 4.1377C95.636 4.81965 95.2222 5.72876 95.2222 6.86523C95.2222 7.91923 95.553 8.78773 96.2144 9.46973C96.8757 10.1517 97.8991 10.6884 99.2837 11.0811L102.818 12.1357C105.752 12.9624 107.219 14.8632 107.219 17.8389C107.219 18.637 107.1 19.3654 106.863 20.0234C106.147 19.9732 105.427 19.9241 104.702 19.876C104.995 19.3151 105.143 18.6573 105.143 17.9014C105.143 15.8348 103.892 14.4498 101.392 13.7471L97.7339 12.6309C94.6546 11.7835 93.1148 9.90326 93.1148 6.98926C93.1148 5.27396 93.7351 3.88894 94.9751 2.83496C96.2357 1.78123 97.8682 1.25392 99.8726 1.25391ZM27.4282 1.71973C29.4948 1.71973 31.2002 2.41133 32.5435 3.7959C33.9075 5.18056 34.5894 6.94832 34.5894 9.09766C34.5893 10.8129 34.145 12.3009 33.2564 13.5615C32.3677 14.8221 31.1895 15.6897 29.7222 16.165L31.4458 18.8896C30.6618 18.9177 29.8812 18.9471 29.104 18.9775L27.5523 16.5059H21.9722V19.2959C21.2663 19.3311 20.5638 19.3671 19.8648 19.4043V1.71973H27.4282ZM91.3345 3.61035H81.2905V11.6699H91.3345V13.5928H81.2905V18.7607C80.5902 18.7396 79.8874 18.7195 79.1822 18.7002V1.71973H91.3345V3.61035ZM46.7583 1.25391C50.1269 1.25397 52.8239 2.36002 54.8491 4.57129C56.8951 6.76195 57.9185 9.42802 57.9185 12.5693C57.9185 14.7435 57.4268 16.6942 56.4468 18.4229C55.6082 18.4249 54.7719 18.428 53.938 18.4326C55.1431 16.7598 55.7476 14.8065 55.7476 12.5693C55.7476 9.94473 54.9319 7.72294 53.2993 5.9043C51.6667 4.06503 49.4862 3.14557 46.7583 3.14551C44.0304 3.14551 41.85 4.06507 40.2173 5.9043C38.5846 7.72296 37.7787 9.94467 37.7993 12.5693C37.7808 14.9006 38.4263 16.9242 39.7329 18.6426C38.8924 18.6629 38.0551 18.684 37.2212 18.707C36.1407 16.9087 35.5982 14.8638 35.5982 12.5693C35.5982 9.428 36.6109 6.76195 38.6363 4.57129C40.6822 2.36005 43.3897 1.25391 46.7583 1.25391ZM75.4575 18.6084C74.788 18.5935 74.1164 18.5796 73.4429 18.5664V1.71973H75.4575V18.6084ZM72.604 18.5498C71.8228 18.5354 71.0389 18.5228 70.2525 18.5107L62.2515 5.16016V18.4297C61.5815 18.4263 60.9099 18.4245 60.2368 18.4229V1.71973H62.4995L72.604 18.5498ZM21.9722 14.584H27.3355C28.8234 14.5839 30.0527 14.0674 31.0239 13.0342C31.9952 12.0009 32.4809 10.6888 32.481 9.09766C32.481 7.50632 31.9953 6.19349 31.0239 5.16016C30.0527 4.12705 28.8233 3.61039 27.3355 3.61035H21.9722V14.584Z" fill="#0C122A" style="fill:#0C122A;fill:color(display-p3 0.0471 0.0706 0.1647);fill-opacity:1;"/>
</g>
<defs>
<clipPath id="clip0_317_859">
<rect width="108" height="21" fill="white" style="fill:white;fill-opacity:1;" transform="translate(0.00927734 0.5)"/>
</clipPath>
</defs>
</svg>
