<svg width="108" height="21" viewBox="0 0 108 21" fill="none" xmlns="http://www.w3.org/2000/svg">
<g clip-path="url(#clip0_5249_773)">
<path d="M6.57227 1.21973C8.86625 1.21973 10.8706 1.7468 12.5859 2.80078C14.3219 3.83411 15.604 5.16714 16.4307 6.7998C17.2571 8.41166 17.6699 10.1682 17.6699 12.0693C17.6699 13.4746 17.4217 14.828 16.9258 16.1299C16.4938 17.2458 15.9047 18.2597 15.1592 19.1719C14.0612 19.2387 12.9725 19.3072 11.8936 19.3789C13.073 18.5657 13.9553 17.5766 14.5391 16.4092C15.2004 15.0659 15.5312 13.6193 15.5312 12.0693C15.5312 9.63069 14.7253 7.53303 13.1133 5.77637C11.5013 3.99903 9.26899 3.11035 6.41699 3.11035H2.16992V20.1133C1.46214 20.1734 0.759622 20.2346 0.0625 20.2969V1.21973H6.57227ZM99.8633 0.753906C101.971 0.753906 103.646 1.34348 104.886 2.52148C106.146 3.67879 106.776 5.26013 106.776 7.26465H104.668C104.668 5.77665 104.234 4.62924 103.366 3.82324C102.519 2.99673 101.331 2.58308 99.8018 2.58301C98.4171 2.58301 97.3005 2.93503 96.4531 3.6377C95.6267 4.31965 95.2129 5.22876 95.2129 6.36523C95.2129 7.41923 95.5437 8.28773 96.2051 8.96973C96.8664 9.65169 97.8898 10.1884 99.2744 10.5811L102.809 11.6357C105.743 12.4624 107.21 14.3632 107.21 17.3389C107.21 18.137 107.091 18.8654 106.854 19.5234C106.138 19.4732 105.418 19.4241 104.693 19.376C104.986 18.8151 105.134 18.1573 105.134 17.4014C105.134 15.3348 103.883 13.9498 101.383 13.2471L97.7246 12.1309C94.6453 11.2835 93.1055 9.40326 93.1055 6.48926C93.1055 4.77396 93.7258 3.38894 94.9658 2.33496C96.2264 1.28123 97.8589 0.753919 99.8633 0.753906ZM27.4189 1.21973C29.4855 1.21973 31.1909 1.91133 32.5342 3.2959C33.8982 4.68056 34.5801 6.44832 34.5801 8.59766C34.58 10.3129 34.1357 11.8009 33.2471 13.0615C32.3584 14.3221 31.1802 15.1897 29.7129 15.665L31.4365 18.3896C30.6525 18.4177 29.8719 18.4471 29.0947 18.4775L27.543 16.0059H21.9629V18.7959C21.257 18.8311 20.5545 18.8671 19.8555 18.9043V1.21973H27.4189ZM91.3252 3.11035H81.2812V11.1699H91.3252V13.0928H81.2812V18.2607C80.5809 18.2396 79.8781 18.2195 79.1729 18.2002V1.21973H91.3252V3.11035ZM46.749 0.753906C50.1176 0.75397 52.8146 1.86002 54.8398 4.07129C56.8858 6.26195 57.9092 8.92802 57.9092 12.0693C57.9092 14.2435 57.4175 16.1942 56.4375 17.9229C55.5989 17.9249 54.7626 17.928 53.9287 17.9326C55.1338 16.2598 55.7383 14.3065 55.7383 12.0693C55.7383 9.44473 54.9226 7.22294 53.29 5.4043C51.6574 3.56503 49.4769 2.64557 46.749 2.64551C44.0211 2.64551 41.8407 3.56507 40.208 5.4043C38.5753 7.22296 37.7694 9.44467 37.79 12.0693C37.7715 14.4006 38.417 16.4242 39.7236 18.1426C38.8831 18.1629 38.0458 18.184 37.2119 18.207C36.1314 16.4087 35.5889 14.3638 35.5889 12.0693C35.5889 8.928 36.6016 6.26195 38.627 4.07129C40.6729 1.86005 43.3804 0.753906 46.749 0.753906ZM75.4482 18.1084C74.7787 18.0935 74.1071 18.0796 73.4336 18.0664V1.21973H75.4482V18.1084ZM72.5947 18.0498C71.8135 18.0354 71.0296 18.0228 70.2432 18.0107L62.2422 4.66016V17.9297C61.5722 17.9263 60.9006 17.9245 60.2275 17.9229V1.21973H62.4902L72.5947 18.0498ZM21.9629 14.084H27.3262C28.8141 14.0839 30.0434 13.5674 31.0146 12.5342C31.9859 11.5009 32.4716 10.1888 32.4717 8.59766C32.4717 7.00632 31.986 5.69349 31.0146 4.66016C30.0434 3.62705 28.814 3.11039 27.3262 3.11035H21.9629V14.084Z" fill="#0C122A" style="fill:#0C122A;fill:color(display-p3 0.0471 0.0706 0.1647);fill-opacity:1;"/>
</g>
<defs>
<clipPath id="clip0_5249_773">
<rect width="108" height="21" fill="white" style="fill:white;fill-opacity:1;"/>
</clipPath>
</defs>
</svg>
