<svg width="25" height="24" viewBox="0 0 25 24" fill="none" xmlns="http://www.w3.org/2000/svg">
<path fill-rule="evenodd" clip-rule="evenodd" d="M12.3877 4C11.592 4 10.829 4.31607 10.2664 4.87868C9.70377 5.44129 9.3877 6.20435 9.3877 7C9.3877 7.79565 9.70377 8.55871 10.2664 9.12132C10.829 9.68393 11.592 10 12.3877 10C13.1833 10 13.9464 9.68393 14.509 9.12132C15.0716 8.55871 15.3877 7.79565 15.3877 7C15.3877 6.20435 15.0716 5.44129 14.509 4.87868C13.9464 4.31607 13.1833 4 12.3877 4ZM8.85216 3.46447C9.78984 2.52678 11.0616 2 12.3877 2C13.7138 2 14.9855 2.52678 15.9232 3.46447C16.8609 4.40215 17.3877 5.67392 17.3877 7C17.3877 8.32608 16.8609 9.59785 15.9232 10.5355C14.9855 11.4732 13.7138 12 12.3877 12C11.0616 12 9.78984 11.4732 8.85216 10.5355C7.91448 9.59785 7.3877 8.32608 7.3877 7C7.3877 5.67392 7.91448 4.40215 8.85216 3.46447ZM6.73084 15.3431C8.23113 13.8429 10.266 13 12.3877 13C14.5094 13 16.5443 13.8429 18.0445 15.3431C19.5448 16.8434 20.3877 18.8783 20.3877 21C20.3877 21.5523 19.94 22 19.3877 22H5.3877C5.12248 22 4.86812 21.8946 4.68059 21.7071C4.49305 21.5196 4.3877 21.2652 4.3877 21C4.3877 18.8783 5.23055 16.8434 6.73084 15.3431ZM12.3877 15C10.7964 15 9.27027 15.6321 8.14505 16.7574C7.25836 17.6441 6.67786 18.7797 6.47159 20H18.3038C18.0975 18.7797 17.517 17.6441 16.6303 16.7574C15.5051 15.6321 13.979 15 12.3877 15Z" fill="#0C122A" style="fill:#0C122A;fill:color(display-p3 0.0471 0.0706 0.1647);fill-opacity:1;"/>
</svg>
