<svg width="16" height="16" viewBox="0 0 16 16" fill="none" xmlns="http://www.w3.org/2000/svg">
<path fill-rule="evenodd" clip-rule="evenodd" d="M7.33301 6.66671C6.96482 6.66671 6.66634 6.96518 6.66634 7.33337V13.3334C6.66634 13.7016 6.96482 14 7.33301 14H13.333C13.7012 14 13.9997 13.7016 13.9997 13.3334V7.33337C13.9997 6.96518 13.7012 6.66671 13.333 6.66671H7.33301ZM5.33301 7.33337C5.33301 6.2288 6.22844 5.33337 7.33301 5.33337H13.333C14.4376 5.33337 15.333 6.2288 15.333 7.33337V13.3334C15.333 14.4379 14.4376 15.3334 13.333 15.3334H7.33301C6.22844 15.3334 5.33301 14.4379 5.33301 13.3334V7.33337Z" fill="black" style="fill:black;fill-opacity:1;"/>
<path fill-rule="evenodd" clip-rule="evenodd" d="M2.66699 1.99996C2.49018 1.99996 2.32061 2.0702 2.19559 2.19522C2.07056 2.32025 2.00033 2.48981 2.00033 2.66663V8.66663C2.00033 8.84344 2.07056 9.01301 2.19559 9.13803C2.32061 9.26305 2.49018 9.33329 2.66699 9.33329H3.33366C3.70185 9.33329 4.00033 9.63177 4.00033 9.99996C4.00033 10.3681 3.70185 10.6666 3.33366 10.6666H2.66699C2.13656 10.6666 1.62785 10.4559 1.25278 10.0808C0.877706 9.70577 0.666992 9.19706 0.666992 8.66663V2.66663C0.666992 2.13619 0.877706 1.62749 1.25278 1.25241C1.62785 0.87734 2.13656 0.666626 2.66699 0.666626H8.66699C9.19743 0.666626 9.70613 0.87734 10.0812 1.25241C10.4563 1.62748 10.667 2.13619 10.667 2.66663V3.33329C10.667 3.70148 10.3685 3.99996 10.0003 3.99996C9.63214 3.99996 9.33366 3.70148 9.33366 3.33329V2.66663C9.33366 2.48982 9.26342 2.32025 9.1384 2.19522C9.01337 2.0702 8.8438 1.99996 8.66699 1.99996H2.66699Z" fill="black" style="fill:black;fill-opacity:1;"/>
</svg>
