<svg width="32" height="32" viewBox="0 0 32 32" fill="none" xmlns="http://www.w3.org/2000/svg">
<rect x="0.5" y="0.5" width="31" height="31" rx="15.5" fill="white" style="fill:white;fill-opacity:1;"/>
<rect x="0.5" y="0.5" width="31" height="31" rx="15.5" stroke="#0C122A" style="stroke:#0C122A;stroke:color(display-p3 0.0471 0.0706 0.1647);stroke-opacity:1;"/>
<path fill-rule="evenodd" clip-rule="evenodd" d="M19.0693 15.7798H24.3265V14.8956L21.6979 12.2487H19.0692L19.0693 15.7798ZM19.0693 11.366H22.1986L25.2027 14.3084V19.3106C25.2027 19.7981 24.8105 20.1934 24.3266 20.1934H23.0122C23.0122 21.4122 22.0316 22.4003 20.8218 22.4003C19.6121 22.4003 18.6313 21.4122 18.6313 20.1934H12.4979C12.4979 21.4122 11.5173 22.4003 10.3074 22.4003C9.0977 22.4003 8.11691 21.4122 8.11691 20.1934H7.67885C7.19495 20.1934 6.80273 19.7981 6.80273 19.3106V10.483C6.80273 9.99549 7.19495 9.60034 7.67885 9.60034H18.1932C18.6771 9.60034 19.0693 9.99549 19.0693 10.483V11.366ZM10.3074 21.5177C11.0333 21.5177 11.6217 20.9249 11.6217 20.1937C11.6217 19.4623 11.0333 18.8695 10.3074 18.8695C9.58157 18.8695 8.99315 19.4623 8.99315 20.1937C8.99315 20.9249 9.58157 21.5177 10.3074 21.5177ZM20.8217 21.5177C21.5477 21.5177 22.1361 20.9249 22.1361 20.1937C22.1361 19.4623 21.5477 18.8695 20.8217 18.8695C20.0959 18.8695 19.5075 19.4623 19.5075 20.1937C19.5075 20.9249 20.0959 21.5177 20.8217 21.5177Z" fill="#0C122A" style="fill:#0C122A;fill:color(display-p3 0.0471 0.0706 0.1647);fill-opacity:1;"/>
</svg>
