<svg width="24" height="24" viewBox="0 0 24 24" fill="none" xmlns="http://www.w3.org/2000/svg">
<path d="M11.9994 7.99798C9.79599 7.99798 7.99785 9.79612 7.99785 11.9995C7.99785 14.2029 9.79599 16.0011 11.9994 16.0011C14.2028 16.0011 16.0009 14.2029 16.0009 11.9995C16.0009 9.79612 14.2028 7.99798 11.9994 7.99798ZM24.001 11.9995C24.001 10.3425 24.016 8.70043 23.923 7.04637C23.8299 5.12515 23.3916 3.42007 21.9867 2.01517C20.5788 0.607278 18.8768 0.172002 16.9555 0.0789425C15.2985 -0.0141167 13.6564 0.0008929 12.0024 0.0008929C10.3453 0.0008929 8.7033 -0.0141167 7.04924 0.0789425C5.12802 0.172002 3.42294 0.61028 2.01804 2.01517C0.610147 3.42307 0.17487 5.12515 0.0818112 7.04637C-0.011248 8.70343 0.00376155 10.3455 0.00376155 11.9995C0.00376155 13.6536 -0.011248 15.2986 0.0818112 16.9527C0.17487 18.8739 0.613149 20.579 2.01804 21.9839C3.42594 23.3918 5.12802 23.827 7.04924 23.9201C8.7063 24.0132 10.3483 23.9982 12.0024 23.9982C13.6594 23.9982 15.3015 24.0132 16.9555 23.9201C18.8768 23.827 20.5819 23.3888 21.9867 21.9839C23.3946 20.576 23.8299 18.8739 23.923 16.9527C24.019 15.2986 24.001 13.6566 24.001 11.9995ZM11.9994 18.1564C8.59222 18.1564 5.84248 15.4067 5.84248 11.9995C5.84248 8.59236 8.59222 5.84261 11.9994 5.84261C15.4066 5.84261 18.1563 8.59236 18.1563 11.9995C18.1563 15.4067 15.4066 18.1564 11.9994 18.1564ZM18.4085 7.02836C17.613 7.02836 16.9706 6.38595 16.9706 5.59045C16.9706 4.79494 17.613 4.15253 18.4085 4.15253C19.204 4.15253 19.8464 4.79494 19.8464 5.59045C19.8466 5.77934 19.8096 5.96643 19.7374 6.14099C19.6652 6.31556 19.5593 6.47417 19.4258 6.60774C19.2922 6.74131 19.1336 6.84721 18.959 6.91939C18.7845 6.99157 18.5974 7.0286 18.4085 7.02836Z" fill="#6D717F" style="fill:#6D717F;fill:color(display-p3 0.4275 0.4431 0.4980);fill-opacity:1;"/>
</svg>
