<svg width="21" height="20" viewBox="0 0 21 20" fill="none" xmlns="http://www.w3.org/2000/svg">
<path fill-rule="evenodd" clip-rule="evenodd" d="M16.2465 5.92128C16.3078 5.902 16.3885 5.94056 16.4692 6.04658C16.4692 6.04658 16.4692 6.04658 20.1157 9.59999C20.3287 9.81204 20.3287 10.1333 20.1157 10.2908C20.1157 10.2908 20.1157 10.2908 16.4692 13.8988C16.3885 14.0048 16.3078 14.0305 16.2465 13.9984C16.1852 13.9663 16.1465 13.8731 16.1465 13.7381V6.15261C16.1465 6.02088 16.1852 5.94056 16.2465 5.92128Z" fill="#ED1C24" style="fill:#ED1C24;fill:color(display-p3 0.9294 0.1098 0.1412);fill-opacity:1;"/>
<path fill-rule="evenodd" clip-rule="evenodd" d="M10.008 0H10.2662L10.5146 0.102812C10.5146 0.102812 10.5146 0.102811 14.2677 3.81687C14.429 4.02892 14.3741 4.18956 14.1063 4.18956C14.1063 4.18956 14.1063 4.18956 12.5509 4.18956C12.283 4.18956 12.0701 4.40161 12.0701 4.66827C12.0701 4.66827 12.0701 4.66827 12.0701 7.4249C12.0701 7.69157 11.8538 7.90361 11.5311 7.90361C11.5311 7.90361 11.5311 7.90361 8.79786 7.90361C8.53002 7.90361 8.31381 7.69157 8.31381 7.4249C8.31381 7.4249 8.31381 7.4249 8.31381 4.66827C8.31381 4.40161 8.10082 4.18956 7.82976 4.18956H6.16784C5.9 4.18956 5.84514 4.02892 6.00649 3.81687C6.00649 3.81687 6.00649 3.81687 9.76274 0.102812L10.008 0Z" fill="#ED1C24" style="fill:#ED1C24;fill:color(display-p3 0.9294 0.1098 0.1412);fill-opacity:1;"/>
<path fill-rule="evenodd" clip-rule="evenodd" d="M4.12897 5.84094C4.19673 5.87307 4.23868 5.96624 4.23868 6.10118V13.8442C4.23868 13.9791 4.19673 14.0594 4.12897 14.0851C4.06442 14.1108 3.97084 14.0851 3.86112 14.0048C3.86112 14.0048 3.86112 14.0048 0.159737 10.2907C-0.0532457 10.1333 -0.0532457 9.81203 0.159737 9.59998C0.159737 9.59998 0.159738 9.59998 3.86112 5.94054C3.97084 5.83452 4.06442 5.80881 4.12897 5.84094Z" fill="#ED1C24" style="fill:#ED1C24;fill:color(display-p3 0.9294 0.1098 0.1412);fill-opacity:1;"/>
<path fill-rule="evenodd" clip-rule="evenodd" d="M8.79826 11.9358C8.79826 11.9358 8.79826 11.9358 11.5315 11.9358C11.8542 11.9358 12.0705 12.1478 12.0705 12.4145C12.0705 12.4145 12.0705 12.4145 12.0705 15.3318C12.0705 15.6498 12.2834 15.8619 12.5513 15.8619H14.0002C14.268 15.8619 14.3745 16.0193 14.1616 16.18C14.1616 16.18 14.1616 16.18 10.515 19.8394C10.4053 19.9454 10.273 20 10.1375 20C10.0052 20 9.86963 19.9454 9.76314 19.8394C9.76314 19.8394 9.76314 19.8394 6.11661 16.18C5.9004 16.0193 6.00689 15.8619 6.27473 15.8619C6.27473 15.8619 6.27473 15.8619 7.83015 15.8619C8.10122 15.8619 8.31421 15.6498 8.31421 15.3318C8.31421 15.3318 8.31421 15.3318 8.31421 12.4145C8.31421 12.1478 8.53042 11.9358 8.79826 11.9358Z" fill="#ED1C24" style="fill:#ED1C24;fill:color(display-p3 0.9294 0.1098 0.1412);fill-opacity:1;"/>
</svg>
