<svg width="292" height="52" viewBox="0 0 292 52" fill="none" xmlns="http://www.w3.org/2000/svg">
<path d="M96.7764 12.6143C98.0642 12.6821 99.3579 12.748 100.657 12.8105C99.9298 15.3924 99.5645 18.1349 99.5645 21.0381C99.5645 28.5303 101.987 34.9521 106.832 40.3037C111.677 45.6553 118.098 48.331 126.098 48.3311C134.097 48.3311 140.52 45.6554 145.364 40.3037C150.209 34.9521 152.603 28.5303 152.547 21.0381C152.566 18.52 152.306 16.1229 151.771 13.8467C153.081 13.8383 154.388 13.828 155.69 13.8145C156.185 16.1151 156.434 18.5229 156.434 21.0381C156.434 29.488 153.645 36.7272 148.068 42.7549C142.548 48.7825 135.224 51.7959 126.098 51.7959C116.972 51.7958 109.62 48.7825 104.043 42.7549C98.5223 36.7272 95.7628 29.488 95.7627 21.0381C95.7627 18.082 96.1007 15.2739 96.7764 12.6143ZM256.887 6.6377C257.325 12.4561 261.169 16.1863 268.421 17.8271L278.562 20.3613C282.617 21.319 285.716 23.0942 287.856 25.6855C289.997 28.2768 291.067 31.6004 291.067 35.6562C291.067 40.6136 289.377 44.557 285.997 47.4863C282.673 50.3593 278.082 51.7959 272.224 51.7959C265.802 51.7959 260.703 50.078 256.929 46.6416L259.633 44.1914C262.788 47.0081 266.957 48.416 272.14 48.416C276.928 48.4159 280.645 47.2893 283.293 45.0361C285.997 42.7828 287.35 39.656 287.35 35.6562C287.35 29.2343 283.688 25.1497 276.364 23.4033L266.225 20.7842C258.073 18.996 253.727 14.4583 253.186 7.1709C254.432 6.99641 255.666 6.81804 256.887 6.6377ZM0 0C1.21207 0.310396 2.45156 0.616715 3.71777 0.918945V47.1484H16.3086C21.8855 47.1484 26.7581 45.8807 30.9268 43.3457C35.1518 40.7543 38.25 37.515 40.2217 33.6279C42.2496 29.741 43.2646 25.5446 43.2646 21.0381C43.2646 16.475 42.2497 12.2493 40.2217 8.3623C40.0603 8.04412 39.8904 7.731 39.7139 7.42188C41.1713 7.62063 42.645 7.81616 44.1348 8.00684C46.0308 12.0504 46.9824 16.3933 46.9824 21.0381C46.9824 26.1643 45.8272 30.953 43.5176 35.4033C41.2643 39.7971 37.7718 43.4308 33.04 46.3037C28.308 49.1767 22.8146 50.6133 16.5615 50.6133H0V0ZM53.5391 9.13086C54.769 9.2682 56.0083 9.4032 57.2568 9.53516V27.7979H73.3965C77.8467 27.7979 81.5365 26.2486 84.4658 23.1504C87.2722 20.1851 88.7602 16.5229 88.9287 12.1641C90.1596 12.2405 91.3963 12.3142 92.6387 12.3857C92.4591 16.619 91.2009 20.3485 88.8604 23.5732C86.3817 27.0094 83.0859 29.2903 78.9736 30.417L91.9863 50.6133H87.5928L75.0869 31.0938C74.7489 31.1501 74.2414 31.1777 73.5654 31.1777H57.2568V50.6133H53.5391V9.13086ZM166.974 50.6133H163.341V13.7041C164.555 13.6817 165.766 13.6568 166.974 13.6299V50.6133ZM204.07 50.6133H200.014L176.854 13.3574C178.214 13.3127 179.569 13.2653 180.918 13.2148L200.437 44.6133V12.2676C201.653 12.1946 202.865 12.1197 204.07 12.042V50.6133ZM218.782 19.5166H247.597V22.8965H218.782V47.1484H247.597V50.6133H215.064V11.2568C216.311 11.1589 217.55 11.0571 218.782 10.9541V19.5166ZM288.562 0.625C289.33 2.67762 289.716 5.00342 289.716 7.60254H285.997C285.997 5.30223 285.633 3.26465 284.907 1.48926C286.15 1.20538 287.368 0.91649 288.562 0.625Z" fill="#0C122A" fill-opacity="0.1" style="fill:#0C122A;fill:color(display-p3 0.0471 0.0706 0.1647);fill-opacity:0.1;"/>
</svg>
