<svg width="54" height="32" viewBox="0 0 54 32" fill="none" xmlns="http://www.w3.org/2000/svg">
<path fill-rule="evenodd" clip-rule="evenodd" d="M17.8691 21.9065H14.708L12.3376 12.5972C12.2251 12.169 11.9862 11.7904 11.6348 11.612C10.7579 11.1636 9.79151 10.8068 8.7373 10.6268V10.2684H13.8295C14.5323 10.2684 15.0594 10.8068 15.1473 11.432L16.3772 18.1471L19.5367 10.2684H22.61L17.8691 21.9065ZM24.367 21.9065H21.3816L23.8399 10.2684H26.8252L24.367 21.9065ZM30.6876 13.4925C30.7754 12.8657 31.3025 12.5073 31.9175 12.5073C32.8838 12.4173 33.9365 12.5973 34.815 13.0441L35.3421 10.5384C34.4636 10.18 33.4973 10 32.6203 10C29.7228 10 27.6144 11.6121 27.6144 13.8494C27.6144 15.5514 29.1078 16.4451 30.162 16.9835C31.3025 17.5203 31.7418 17.8787 31.6539 18.4156C31.6539 19.2208 30.7754 19.5792 29.8985 19.5792C28.8443 19.5792 27.7901 19.3108 26.8253 18.8624L26.2982 21.3697C27.3524 21.8166 28.4929 21.9965 29.5471 21.9965C32.796 22.085 34.815 20.4745 34.815 18.0572C34.815 15.013 30.6876 14.8346 30.6876 13.4925ZM45.2631 21.9065L42.8926 10.2684H40.3465C39.8194 10.2684 39.2923 10.6268 39.1166 11.1636L34.7272 21.9065H37.8004L38.4138 20.206H42.1898L42.5412 21.9065H45.2631ZM40.7857 13.4026L41.6627 17.7888H39.2044L40.7857 13.4026Z" fill="#1434CB" style="fill:#1434CB;fill:color(display-p3 0.0784 0.2039 0.7961);fill-opacity:1;"/>
</svg>
